<svg xmlns="http://www.w3.org/2000/svg" xmlns:xlink="http://www.w3.org/1999/xlink" width="1280" zoomAndPan="magnify" viewBox="0 0 960 959.999988" height="1280" preserveAspectRatio="xMidYMid meet" version="1.0"><path fill="#ffffff" d="M 568.257812 375.980469 C 568.257812 376.375 568.257812 376.574219 568.257812 376.964844 C 568.257812 377.359375 568.257812 377.558594 568.257812 377.953125 C 568.257812 410.0625 480.589844 436.066406 372.632812 436.066406 C 264.675781 436.066406 177.007812 410.0625 177.007812 377.953125 C 177.007812 377.558594 177.007812 377.164062 177.007812 376.964844 C 177.007812 376.574219 177.007812 376.375 177.007812 375.980469 C 177.007812 346.628906 264.675781 322.988281 372.632812 322.988281 C 404.746094 322.988281 435.082031 325.15625 461.679688 328.699219 C 465.027344 326.730469 468.769531 325.351562 472.511719 323.972656 C 473.890625 323.382812 475.46875 322.789062 476.847656 322.789062 C 478.816406 322.789062 480.589844 323.183594 482.558594 323.382812 C 495.957031 324.957031 509.550781 326.335938 524.128906 330.078125 L 540.875 325.941406 C 541.660156 331.066406 542.253906 343.082031 542.449219 349.386719 C 558.800781 357.464844 568.257812 366.328125 568.257812 375.980469 Z M 662.621094 146.671875 C 656.710938 139.382812 652.375 130.910156 648.042969 122.636719 C 645.480469 117.710938 642.921875 112.984375 640.359375 108.058594 L 645.480469 96.039062 L 655.726562 94.070312 C 657.105469 81.855469 655.136719 69.050781 650.011719 57.820312 C 642.132812 40.289062 615.539062 33.589844 598.398438 39.5 C 592.488281 41.472656 587.167969 45.015625 582.242188 48.957031 C 571.605469 57.230469 559.984375 68.066406 557.222656 81.660156 C 556.832031 83.828125 556.632812 85.796875 556.4375 87.964844 C 556.4375 88.949219 556.4375 89.933594 556.632812 90.917969 C 557.027344 91.902344 557.617188 92.691406 558.40625 93.28125 C 558.601562 103.527344 559.390625 113.574219 562.148438 123.425781 C 562.742188 125.589844 563.332031 127.5625 564.121094 129.53125 C 563.726562 131.699219 563.332031 133.867188 563.132812 135.835938 C 562.9375 138.003906 562.9375 140.167969 562.9375 142.335938 C 563.132812 144.699219 564.316406 145.292969 567.074219 145.488281 C 568.257812 145.488281 570.421875 145.683594 572.589844 145.683594 C 575.546875 150.019531 579.289062 153.761719 583.425781 156.914062 C 585.789062 158.882812 588.546875 160.460938 591.503906 161.445312 C 598.792969 164.007812 607.066406 161.644531 613.171875 156.914062 C 617.308594 163.613281 621.054688 170.703125 624.597656 177.601562 Z M 662.621094 146.671875 " fill-opacity="1" fill-rule="nonzero"/><path fill="#e4f9f5" d="M 473.695312 362.78125 C 471.527344 362.386719 467.785156 360.023438 469.359375 357.464844 C 469.753906 356.675781 470.542969 356.28125 471.132812 355.886719 C 475.863281 352.933594 481.378906 351.355469 486.304688 348.597656 C 486.699219 348.402344 486.894531 348.203125 487.089844 348.007812 C 487.683594 346.824219 485.910156 344.265625 485.121094 343.277344 C 484.332031 342.292969 482.953125 341.703125 481.773438 341.113281 L 474.089844 340.519531 C 473.890625 340.519531 473.695312 340.71875 473.695312 340.71875 C 472.121094 341.507812 470.542969 342.492188 469.359375 343.871094 C 467.980469 345.25 467.195312 347.21875 465.816406 348.597656 C 464.4375 350.371094 462.464844 351.75 460.496094 353.128906 C 459.707031 353.71875 458.722656 354.507812 457.542969 354.3125 C 457.148438 354.3125 456.753906 353.917969 456.359375 353.917969 C 455.769531 353.71875 455.175781 353.71875 454.585938 353.71875 C 453.996094 353.523438 453.207031 353.128906 452.8125 352.734375 C 452.617188 352.539062 452.417969 352.339844 452.417969 351.945312 C 452.023438 350.960938 453.402344 347.613281 453.402344 347.613281 C 453.402344 347.613281 452.023438 348.402344 450.253906 348.402344 C 449.464844 348.402344 448.675781 348.007812 448.480469 347.417969 C 448.28125 346.824219 448.480469 346.429688 448.675781 345.839844 C 449.464844 343.871094 450.253906 341.898438 451.238281 339.929688 C 451.433594 339.734375 451.433594 339.339844 451.632812 339.140625 L 429.371094 337.761719 L 310.972656 374.800781 C 310.972656 377.953125 313.53125 380.511719 316.683594 380.710938 L 429.371094 384.058594 L 479.210938 363.570312 C 477.242188 363.375 475.46875 363.175781 473.695312 362.78125 Z M 473.695312 362.78125 " fill-opacity="1" fill-rule="nonzero"/><path fill="#e4f9f5" d="M 746.742188 355.492188 C 745.164062 334.609375 743.195312 313.925781 741.421875 293.042969 C 739.648438 274.722656 740.238281 256.992188 735.511719 238.867188 C 730.785156 220.941406 723.890625 203.40625 715.21875 187.054688 C 710.691406 178.386719 705.371094 169.917969 698.082031 163.21875 C 691.382812 156.914062 682.714844 152.582031 675.425781 146.867188 C 671.09375 143.519531 667.546875 142.535156 664 143.125 C 663.605469 141.351562 663.015625 139.578125 662.421875 137.804688 C 662.03125 136.625 661.242188 135.246094 660.058594 134.652344 C 658.484375 133.867188 656.710938 134.851562 655.132812 135.636719 C 642.132812 143.519531 628.933594 151.59375 618.6875 163.023438 C 618.296875 163.414062 617.902344 164.007812 617.507812 164.402344 C 615.144531 167.160156 612.976562 170.3125 611.597656 173.660156 C 610.019531 177.402344 609.234375 181.539062 608.640625 185.675781 C 608.050781 189.421875 607.460938 193.164062 607.066406 197.101562 C 593.667969 213.257812 582.835938 231.183594 578.304688 252.066406 C 575.742188 264.28125 575.347656 276.890625 575.152344 289.300781 C 575.152344 297.179688 575.152344 305.0625 575.347656 312.941406 C 562.148438 318.0625 548.753906 322.59375 535.75 327.320312 C 534.570312 335.792969 535.554688 345.050781 537.523438 354.3125 C 538.113281 357.265625 538.902344 360.222656 539.691406 362.980469 C 546.191406 362.386719 552.691406 361.402344 558.996094 359.828125 C 565.105469 358.449219 571.210938 356.476562 577.121094 354.113281 C 577.121094 354.902344 577.320312 355.691406 577.320312 356.476562 C 572.394531 358.644531 567.46875 360.8125 562.347656 362.980469 C 535.160156 374.011719 506.988281 382.679688 478.621094 390.757812 C 478.621094 391.152344 478.621094 391.542969 478.621094 391.9375 C 477.832031 402.773438 480.589844 413.804688 485.910156 423.066406 C 486.304688 423.65625 486.699219 424.246094 487.089844 424.839844 C 489.257812 428.1875 491.621094 431.140625 494.378906 434.097656 C 496.941406 436.660156 499.898438 439.023438 503.441406 439.808594 C 506.398438 440.402344 509.351562 440.007812 512.109375 439.417969 C 535.75 435.082031 559.195312 428.382812 581.652344 419.714844 C 581.851562 450.449219 577.910156 480.984375 573.96875 511.519531 C 573.773438 512.503906 583.425781 514.472656 592.488281 516.050781 C 590.519531 528.265625 591.109375 543.433594 590.125 553.285156 C 588.351562 570.621094 586.578125 587.957031 585 605.488281 C 583.425781 623.613281 581.0625 642.132812 580.667969 660.257812 C 580.46875 672.863281 584.214844 685.277344 586.378906 697.6875 C 591.304688 726.644531 603.324219 830.664062 595.835938 859.625 C 596.035156 859.625 596.035156 859.820312 596.230469 859.820312 C 587.757812 868.488281 577.710938 875.777344 567.46875 881.882812 C 554.074219 889.960938 539.691406 896.855469 525.703125 904.144531 C 524.523438 904.738281 523.339844 905.328125 522.550781 906.511719 C 521.566406 907.890625 521.566406 909.660156 521.566406 911.433594 C 521.566406 914.191406 521.765625 917.542969 523.929688 919.511719 C 524.914062 920.496094 526.097656 920.890625 527.28125 921.285156 C 540.085938 926.011719 554.269531 926.011719 567.863281 924.832031 C 581.457031 923.648438 595.050781 920.695312 608.640625 919.90625 C 617.902344 919.316406 627.160156 919.511719 636.222656 918.527344 C 645.285156 917.542969 654.347656 915.375 662.03125 910.449219 C 661.832031 910.253906 661.832031 910.054688 662.226562 909.859375 C 666.757812 907.101562 668.332031 902.371094 668.53125 896.660156 C 668.53125 895.675781 668.332031 894.691406 668.332031 893.703125 C 668.332031 893.703125 668.53125 893.902344 668.53125 893.902344 C 668.332031 890.550781 667.742188 887.007812 666.953125 883.460938 C 665.183594 875.777344 662.621094 868.09375 661.4375 863.367188 C 661.4375 863.167969 661.4375 863.167969 661.4375 862.972656 C 661.242188 862.972656 661.042969 863.167969 660.847656 863.167969 C 660.257812 863.367188 659.664062 863.5625 658.878906 863.761719 C 646.464844 868.683594 631.886719 868.683594 618.492188 866.914062 C 618.296875 866.914062 618.097656 866.914062 618.097656 866.914062 C 625.191406 867.304688 632.675781 866.714844 639.769531 865.925781 C 645.480469 865.335938 651.195312 864.746094 657.105469 864.152344 C 658.484375 863.957031 659.863281 863.761719 661.042969 863.367188 C 661.4375 863.167969 661.636719 863.167969 661.832031 862.972656 C 662.03125 862.972656 662.421875 862.972656 662.421875 863.367188 C 663.804688 868.683594 669.320312 883.460938 669.910156 895.28125 C 677.003906 900.207031 684.488281 904.539062 692.367188 908.085938 C 695.914062 909.660156 699.65625 911.238281 703.597656 911.632812 C 706.75 912.027344 710.097656 911.632812 713.25 911.238281 C 718.371094 910.449219 723.496094 909.660156 728.417969 908.480469 C 729.601562 908.28125 730.980469 907.890625 731.570312 906.902344 C 732.164062 906.117188 732.164062 904.933594 732.164062 903.75 C 732.164062 888.1875 730.785156 872.429688 728.417969 857.0625 C 729.996094 856.667969 731.570312 856.078125 732.753906 855.484375 C 734.527344 825.34375 736.101562 795.203125 735.511719 765.257812 C 735.117188 743.390625 736.300781 721.523438 735.316406 699.65625 C 734.527344 678.972656 731.570312 658.089844 731.570312 637.402344 C 731.570312 627.75 731.964844 618.097656 732.164062 608.445312 C 732.558594 587.957031 730.585938 567.664062 727.632812 547.375 C 731.570312 538.113281 734.527344 528.660156 736.695312 518.808594 C 741.226562 517.824219 745.164062 516.050781 747.136719 512.703125 C 750.089844 507.777344 750.484375 501.867188 750.679688 496.152344 C 750.878906 491.226562 750.878906 486.105469 751.074219 481.179688 C 752.058594 438.628906 749.894531 396.863281 746.742188 355.492188 Z M 667.347656 859.425781 C 665.96875 860.410156 664.394531 861.199219 662.816406 861.988281 C 663.210938 861.59375 663.410156 861.394531 663.605469 860.804688 C 663.804688 860.410156 663.804688 860.015625 664 859.820312 C 664.984375 859.425781 665.96875 859.03125 666.953125 858.636719 C 667.347656 858.246094 667.742188 859.03125 667.347656 859.425781 Z M 668.136719 834.210938 C 668.925781 835.785156 669.714844 837.164062 670.5 838.542969 C 668.136719 840.121094 665.96875 841.695312 663.605469 843.273438 C 662.421875 805.839844 661.242188 768.410156 660.257812 730.980469 C 659.863281 720.933594 659.664062 710.886719 658.484375 700.839844 C 657.105469 688.429688 654.347656 676.410156 650.605469 664.589844 C 652.574219 661.4375 654.542969 658.285156 656.121094 655.527344 C 661.636719 672.667969 665.96875 690.003906 667.347656 707.929688 C 668.53125 723.496094 669.515625 738.859375 670.304688 754.421875 C 671.09375 770.972656 671.683594 787.71875 671.484375 804.265625 C 671.289062 813.328125 672.472656 825.9375 668.136719 834.210938 Z M 668.136719 834.210938 " fill-opacity="1" fill-rule="nonzero"/><path fill="#000000" d="M 422.277344 324.761719 L 429.371094 337.761719 L 451.039062 339.140625 C 450.644531 339.929688 450.449219 340.519531 450.054688 341.308594 C 449.464844 342.886719 447.296875 346.039062 448.28125 347.808594 C 449.265625 349.582031 451.433594 348.796875 453.011719 348.203125 C 452.222656 349.976562 451.433594 351.945312 452.023438 353.128906 C 453.011719 355.492188 456.160156 355.296875 458.527344 354.707031 C 463.84375 353.523438 465.027344 349.582031 468.179688 346.039062 C 470.148438 343.871094 472.316406 342.097656 474.679688 340.914062 L 481.574219 341.308594 C 480.984375 341.113281 480.195312 340.71875 479.605469 340.519531 C 478.421875 340.128906 477.4375 339.929688 476.453125 340.128906 C 482.363281 337.761719 488.863281 338.355469 493.789062 343.277344 C 491.425781 343.476562 489.257812 345.050781 487.289062 346.234375 C 482.953125 348.796875 478.816406 351.160156 473.890625 352.933594 C 468.96875 354.707031 465.027344 360.023438 470.738281 363.765625 C 471.332031 364.160156 471.726562 363.375 471.332031 362.980469 C 466.601562 357.660156 473.105469 355.296875 477.4375 353.71875 C 479.605469 352.933594 481.574219 351.75 483.546875 350.765625 C 487.484375 348.402344 491.03125 346.429688 495.167969 344.855469 C 495.957031 344.65625 495.757812 343.671875 494.972656 343.671875 C 494.972656 343.671875 494.773438 343.671875 494.773438 343.671875 C 491.226562 339.140625 488.46875 336.382812 482.363281 337.566406 C 479.015625 338.355469 472.121094 340.128906 469.359375 342.6875 C 467.980469 344.066406 467.589844 345.839844 466.40625 347.21875 C 463.449219 350.765625 454.390625 359.039062 452.8125 351.554688 C 452.617188 350.765625 452.8125 349.582031 453.402344 348.402344 C 453.402344 348.402344 453.402344 348.402344 453.601562 348.402344 C 453.996094 348.203125 453.996094 348.007812 453.796875 347.808594 C 455.375 344.066406 458.328125 339.535156 459.707031 337.171875 C 465.421875 327.519531 473.890625 323.777344 485.121094 324.761719 C 491.03125 325.351562 496.941406 326.335938 503.046875 326.535156 C 503.441406 326.535156 503.441406 325.941406 503.046875 325.941406 C 494.972656 325.15625 486.105469 322.59375 478.226562 323.183594 C 475.664062 323.382812 473.5 324.167969 471.332031 325.351562 C 467.785156 326.335938 464.238281 327.714844 461.085938 329.488281 C 448.871094 327.125 435.871094 325.746094 422.277344 324.761719 Z M 463.253906 330.472656 C 458.921875 334.414062 457.148438 338.945312 454.78125 344.265625 C 454.585938 344.855469 453.996094 345.644531 453.601562 346.628906 C 453.601562 346.628906 453.402344 346.628906 453.402344 346.628906 C 446.507812 350.371094 449.859375 344.066406 450.449219 342.492188 C 451.632812 339.535156 453.011719 335.988281 455.375 333.625 C 459.117188 329.6875 464.238281 327.714844 469.164062 325.746094 C 466.996094 327.320312 465.027344 328.898438 463.253906 330.472656 Z M 650.996094 152.1875 C 655.726562 147.65625 661.4375 141.15625 668.726562 141.746094 C 675.425781 142.535156 681.140625 149.625 685.867188 153.761719 C 686.457031 154.351562 685.671875 155.339844 684.882812 154.945312 C 682.519531 153.566406 680.746094 151.59375 678.578125 149.824219 C 676.804688 148.246094 674.441406 145.488281 672.078125 144.898438 C 667.152344 143.320312 660.453125 145.882812 656.710938 149.035156 C 650.40625 154.550781 644.300781 160.65625 638.191406 166.371094 C 623.613281 180.160156 609.824219 194.738281 596.820312 209.910156 C 596.625 210.300781 596.035156 209.710938 596.429688 209.515625 C 613.371094 188.828125 631.691406 170.507812 650.996094 152.1875 Z M 644.695312 396.863281 C 623.417969 406.515625 600.761719 414.003906 578.699219 421.488281 C 578.105469 421.6875 578.105469 420.898438 578.5 420.703125 C 599.578125 411.835938 621.445312 404.742188 642.132812 395.484375 C 659.273438 387.800781 675.621094 376.179688 685.277344 359.828125 C 695.125 343.277344 699.261719 322.789062 703.402344 304.074219 C 708.128906 282.800781 710.492188 260.933594 710.691406 239.261719 C 710.691406 237.882812 712.855469 237.882812 712.855469 239.261719 C 712.460938 262.507812 709.703125 285.558594 704.386719 308.210938 C 699.855469 327.125 696.503906 347.21875 685.671875 363.765625 C 675.820312 378.738281 660.847656 389.574219 644.695312 396.863281 Z M 609.234375 345.644531 C 609.429688 345.644531 609.628906 345.644531 609.824219 345.445312 C 618.097656 343.277344 626.765625 341.898438 636.417969 341.703125 C 637.40625 341.703125 637.40625 340.128906 636.417969 340.128906 C 627.75 339.140625 619.082031 340.128906 610.613281 342.492188 C 614.75 317.078125 617.902344 291.664062 620.265625 266.054688 C 622.828125 238.277344 624.007812 210.5 647.253906 191.785156 C 647.648438 191.390625 647.058594 190.800781 646.664062 190.996094 C 626.765625 202.816406 622.234375 228.230469 620.066406 249.113281 C 616.71875 280.632812 613.371094 311.957031 608.445312 343.082031 C 602.730469 344.855469 597.414062 347.023438 592.289062 349.386719 C 588.152344 351.355469 583.820312 353.328125 579.683594 355.296875 C 576.332031 328.109375 575.742188 300.726562 576.53125 273.34375 C 576.53125 272.753906 575.742188 272.753906 575.742188 273.34375 C 573.773438 300.921875 574.953125 328.503906 577.910156 355.886719 C 577.910156 355.886719 577.910156 356.085938 577.910156 356.085938 C 572.789062 358.449219 567.664062 360.8125 562.542969 362.980469 C 561.558594 361.996094 560.574219 361.007812 559.390625 360.023438 C 553.085938 361.601562 546.585938 362.585938 540.085938 363.175781 C 539.296875 360.222656 538.507812 357.265625 537.917969 354.507812 C 533.191406 355.296875 526.296875 356.476562 520.976562 357.265625 C 522.15625 356.675781 523.144531 355.886719 524.128906 355.296875 C 526.492188 353.71875 528.660156 351.945312 530.234375 349.582031 C 530.433594 349.386719 530.039062 348.992188 529.839844 349.1875 C 525.703125 352.734375 521.765625 356.675781 516.445312 357.660156 C 516.050781 357.660156 515.65625 357.660156 515.261719 357.660156 C 507.777344 358.25 500.683594 360.617188 493.59375 362.386719 C 488.863281 363.570312 484.136719 363.964844 479.410156 363.570312 L 429.371094 384.058594 L 316.683594 380.710938 C 313.53125 380.710938 310.972656 377.953125 310.972656 374.800781 L 284.769531 328.699219 C 220.941406 337.367188 177.007812 355.296875 177.007812 375.980469 L 177.007812 377.558594 C 177.007812 377.753906 177.007812 377.753906 177.007812 377.953125 C 177.007812 408.882812 258.566406 434.292969 361.207031 436.066406 L 361.207031 817.859375 C 300.136719 819.632812 252.460938 834.800781 252.460938 853.320312 C 252.460938 873.019531 306.242188 888.976562 372.632812 888.976562 C 439.023438 888.976562 492.804688 873.019531 492.804688 853.320312 C 492.804688 834.800781 445.128906 819.433594 384.058594 817.859375 L 384.058594 436.066406 C 422.277344 435.476562 457.542969 431.535156 486.894531 425.230469 C 486.5 424.640625 486.105469 424.050781 485.710938 423.460938 C 482.757812 424.246094 480 425.035156 476.847656 425.429688 C 470.738281 426.21875 464.632812 426.414062 458.328125 426.019531 C 455.769531 425.824219 453.011719 425.230469 450.054688 424.640625 C 444.144531 423.460938 437.839844 422.082031 432.71875 425.429688 C 432.128906 425.824219 431.535156 426.21875 430.945312 426.609375 C 429.761719 427.398438 428.582031 428.382812 427.398438 429.171875 C 422.867188 432.128906 417.550781 432.914062 412.625 431.339844 C 411.835938 431.140625 411.046875 430.550781 411.046875 429.566406 C 411.046875 428.976562 411.441406 428.582031 411.835938 428.1875 C 412.035156 427.992188 412.035156 427.992188 412.230469 427.792969 C 412.625 427.398438 412.820312 427.203125 413.214844 426.808594 C 413.414062 427.003906 413.609375 427.003906 413.804688 426.808594 C 422.472656 419.125 429.960938 412.820312 442.175781 413.609375 C 442.570312 413.609375 442.570312 413.019531 442.175781 413.019531 C 439.8125 412.425781 437.445312 412.425781 435.28125 412.625 C 435.28125 412.625 435.28125 412.425781 435.082031 412.425781 C 431.535156 410.851562 427.792969 410.457031 424.050781 411.640625 C 419.714844 412.820312 415.777344 415.578125 411.835938 417.746094 C 409.867188 418.929688 407.699219 419.914062 405.53125 420.898438 C 404.351562 421.292969 403.367188 421.6875 402.183594 421.882812 C 400.605469 422.277344 399.226562 422.671875 397.652344 422.277344 C 396.273438 422.082031 394.894531 421.09375 394.695312 419.714844 C 394.695312 418.929688 394.894531 418.140625 395.289062 417.351562 C 395.878906 416.367188 401.984375 411.835938 403.5625 410.652344 C 405.925781 408.882812 408.488281 407.304688 410.851562 405.335938 C 419.125 398.832031 428.976562 395.878906 439.613281 395.683594 C 440.203125 395.683594 440.203125 394.894531 439.613281 394.894531 C 431.929688 395.089844 421.6875 396.46875 415.183594 400.804688 C 409.867188 404.546875 404.546875 408.683594 399.425781 412.820312 C 397.652344 414.199219 392.53125 417.351562 392.53125 419.519531 C 392.53125 420.109375 392.53125 420.503906 392.726562 420.898438 C 391.9375 420.898438 391.152344 421.09375 390.558594 421.09375 C 389.378906 421.09375 387.605469 420.898438 387.015625 419.714844 C 386.421875 418.730469 387.015625 417.550781 387.40625 416.761719 C 388.589844 414.792969 390.757812 413.414062 392.53125 411.640625 C 394.304688 409.867188 396.273438 408.09375 398.046875 406.320312 C 398.046875 406.320312 398.046875 406.515625 398.242188 406.320312 C 413.414062 393.910156 429.371094 385.636719 449.660156 388.785156 C 450.054688 388.785156 450.25 388.195312 449.859375 388 C 449.070312 387.800781 448.28125 387.605469 447.492188 387.605469 C 451.433594 388 455.175781 388.785156 459.117188 389.574219 C 464.4375 390.757812 471.527344 393.910156 476.847656 392.53125 C 477.242188 392.332031 477.832031 392.332031 478.226562 392.136719 C 478.226562 391.742188 478.226562 391.347656 478.226562 390.953125 C 499.699219 384.648438 520.976562 378.347656 541.859375 370.859375 C 541.660156 371.058594 541.859375 371.648438 542.253906 371.449219 C 556.632812 368.296875 570.421875 361.996094 583.621094 355.492188 C 592.683594 351.355469 600.761719 348.007812 609.234375 345.644531 Z M 434.292969 413.019531 C 434.097656 413.019531 434.097656 413.019531 434.292969 413.019531 C 434.097656 413.019531 434.292969 413.019531 434.292969 413.019531 Z M 409.078125 397.0625 C 409.472656 396.863281 409.867188 396.667969 410.261719 396.46875 C 408.289062 397.847656 406.320312 399.226562 404.546875 400.605469 C 405.925781 399.226562 407.503906 398.046875 409.078125 397.0625 Z M 549.738281 368.101562 C 549.34375 368.296875 548.753906 368.496094 548.359375 368.691406 C 548.753906 368.296875 549.34375 368.101562 549.738281 368.101562 Z M 555.453125 365.738281 C 555.253906 365.933594 554.859375 365.933594 554.664062 366.132812 C 555.058594 365.933594 555.253906 365.933594 555.453125 365.738281 Z M 651.195312 341.113281 C 651.984375 341.703125 650.996094 342.886719 650.210938 342.492188 C 641.738281 337.761719 633.859375 334.808594 623.8125 336.1875 C 623.023438 336.382812 622.628906 335.203125 623.417969 335.003906 C 632.875 333.035156 643.707031 334.414062 651.195312 341.113281 Z M 748.121094 515.460938 C 738.46875 520.382812 728.222656 520.1875 717.585938 520.582031 C 703.597656 520.976562 689.414062 521.761719 675.425781 521.960938 C 648.042969 522.355469 617.703125 523.535156 591.109375 516.246094 C 590.910156 516.246094 590.910156 515.65625 591.109375 515.851562 C 617.308594 518.21875 643.117188 520.777344 669.515625 520.382812 C 682.910156 520.1875 696.308594 519.792969 709.902344 519.398438 C 722.507812 518.808594 735.316406 519.203125 747.136719 513.882812 C 748.316406 513.488281 749.300781 515.066406 748.121094 515.460938 Z M 732.164062 536.539062 C 716.207031 577.910156 685.078125 612.582031 660.652344 649.421875 C 660.058594 650.210938 659.46875 651.195312 658.878906 651.980469 C 657.5 654.148438 656.121094 656.316406 654.742188 658.484375 C 654.542969 658.679688 654.347656 658.679688 654.148438 658.679688 C 649.226562 665.574219 643.707031 672.078125 637.996094 678.183594 C 637.601562 678.773438 636.617188 677.988281 637.011719 677.394531 C 643.90625 668.136719 651.195312 659.074219 658.285156 649.816406 C 669.515625 631.492188 682.519531 614.355469 694.929688 596.820312 C 708.71875 577.316406 720.738281 557.222656 731.769531 536.144531 C 731.769531 536.144531 732.164062 536.339844 732.164062 536.539062 Z M 727.238281 682.910156 C 721.328125 682.519531 716.402344 682.320312 710.691406 684.488281 C 710.097656 684.683594 709.507812 683.699219 710.296875 683.304688 C 715.417969 680.941406 721.917969 679.5625 727.433594 681.335938 C 728.027344 681.730469 728.027344 682.910156 727.238281 682.910156 Z M 725.269531 692.171875 C 720.34375 691.382812 715.613281 691.578125 710.886719 693.351562 C 710.097656 693.746094 709.507812 692.367188 710.296875 691.972656 C 715.023438 689.808594 720.539062 689.214844 725.464844 690.792969 C 726.449219 691.1875 726.253906 692.367188 725.269531 692.171875 Z M 610.414062 696.898438 C 601.15625 696.308594 593.078125 692.566406 586.773438 685.667969 C 585.988281 684.882812 587.167969 683.699219 587.957031 684.488281 C 593.867188 690.792969 601.945312 694.535156 610.613281 695.324219 C 611.398438 695.519531 611.398438 696.898438 610.414062 696.898438 Z M 658.089844 705.371094 C 654.742188 692.566406 651.984375 679.367188 649.617188 666.167969 C 649.421875 665.378906 650.605469 665.179688 650.605469 665.96875 C 653.953125 678.773438 656.90625 691.972656 659.273438 704.976562 C 659.46875 705.765625 658.285156 706.15625 658.089844 705.371094 Z M 604.503906 427.992188 C 616.71875 448.085938 627.160156 471.132812 632.28125 494.183594 C 632.480469 494.972656 631.496094 495.167969 631.101562 494.578125 C 623.023438 471.921875 614.75 450.054688 603.324219 428.777344 C 602.929688 427.792969 603.914062 427.203125 604.503906 427.992188 Z M 638.585938 474.679688 C 635.433594 471.332031 632.875 467.195312 630.3125 463.253906 C 629.722656 462.464844 631.101562 461.675781 631.496094 462.464844 C 634.054688 466.40625 637.011719 469.953125 639.570312 473.890625 C 640.164062 474.484375 638.980469 475.074219 638.585938 474.679688 Z M 667.347656 859.425781 C 650.605469 870.457031 627.75 868.683594 608.839844 865.140625 C 608.25 864.941406 608.445312 864.152344 609.035156 864.152344 C 629.722656 866.714844 647.453125 866.914062 666.953125 858.636719 C 667.347656 858.246094 667.742188 859.03125 667.347656 859.425781 Z M 662.621094 862.773438 C 664.984375 871.640625 678.382812 906.707031 662.621094 910.648438 C 662.226562 910.84375 661.832031 910.054688 662.226562 909.859375 C 675.625 901.980469 664.394531 874.792969 661.636719 863.167969 C 661.4375 862.382812 662.421875 862.183594 662.621094 862.773438 Z M 574.953125 125.394531 C 573.574219 125 572.589844 123.621094 572.789062 122.242188 C 572.984375 120.863281 574.5625 119.878906 575.941406 120.074219 C 577.320312 120.46875 578.304688 121.847656 578.105469 123.226562 C 577.910156 124.804688 576.53125 125.789062 574.953125 125.394531 Z M 573.574219 140.167969 C 574.167969 140.5625 574.167969 141.546875 573.378906 141.746094 C 572.984375 141.746094 572.789062 141.941406 572.394531 141.941406 C 572 141.941406 571.800781 141.941406 571.410156 141.941406 C 570.816406 141.941406 570.226562 142.335938 569.4375 142.335938 C 568.847656 142.335938 568.453125 141.746094 568.847656 141.15625 C 569.242188 140.367188 570.226562 139.972656 571.015625 139.972656 C 571.410156 139.972656 572 139.773438 572.394531 139.773438 C 572.789062 139.773438 573.183594 139.972656 573.574219 140.167969 Z M 588.941406 146.472656 C 587.957031 147.851562 586.183594 150.609375 584.015625 150.414062 C 583.621094 150.414062 583.425781 149.824219 583.820312 149.625 C 587.5625 147.0625 587.761719 142.730469 589.335938 138.789062 C 589.730469 138.003906 591.109375 138.199219 591.304688 138.988281 C 591.699219 141.546875 590.519531 144.304688 588.941406 146.472656 Z M 588.746094 153.960938 C 588.351562 153.761719 588.546875 152.972656 588.941406 152.972656 C 589.925781 152.972656 590.714844 152.582031 591.304688 151.988281 C 591.898438 151.398438 592.488281 150.609375 593.277344 150.214844 C 593.667969 150.019531 594.261719 150.214844 594.261719 150.808594 C 594.0625 152.972656 591.109375 155.140625 588.746094 153.960938 Z M 619.28125 145.292969 C 622.433594 140.957031 625.78125 136.820312 628.144531 131.894531 C 630.902344 126.378906 632.085938 120.667969 633.265625 114.757812 C 633.464844 114.363281 634.054688 114.363281 634.054688 114.953125 C 633.859375 125.984375 628.539062 138.59375 620.265625 146.277344 C 619.871094 146.671875 618.6875 145.882812 619.28125 145.292969 Z M 556.632812 90.917969 C 556.238281 89.933594 556.4375 88.949219 556.4375 87.964844 C 556.4375 85.796875 556.832031 83.628906 557.222656 81.660156 C 559.980469 67.871094 571.605469 57.230469 582.242188 48.957031 C 587.167969 45.015625 592.488281 41.667969 598.398438 39.5 C 615.734375 33.589844 642.132812 40.484375 650.011719 57.820312 C 654.742188 68.066406 656.710938 79.691406 655.921875 90.917969 C 655.921875 91.3125 655.921875 91.902344 655.921875 92.296875 C 655.921875 92.691406 655.921875 93.085938 655.921875 93.675781 C 655.921875 99.785156 655.921875 105.890625 655.527344 111.996094 C 655.332031 116.921875 654.347656 122.832031 651.785156 127.167969 C 651.589844 127.5625 651.195312 127.957031 650.800781 128.347656 C 650.40625 128.742188 650.011719 129.136719 649.421875 128.941406 C 648.632812 128.742188 647.453125 127.167969 647.058594 126.574219 C 645.285156 124.210938 643.707031 121.058594 642.328125 118.105469 C 639.769531 112.195312 638.390625 106.679688 639.175781 100.179688 C 639.375 98.011719 639.964844 96.039062 640.359375 93.875 C 640.359375 93.28125 640.359375 92.890625 640.164062 92.296875 C 639.769531 88.949219 638.585938 86.191406 634.84375 85.597656 C 632.480469 85.207031 630.117188 86.191406 628.539062 88.160156 C 627.949219 88.949219 627.554688 89.738281 627.355469 90.523438 C 625.976562 94.070312 625.386719 97.617188 625.191406 101.359375 C 623.21875 102.9375 620.460938 103.132812 618.296875 102.148438 C 616.324219 101.164062 614.945312 99.390625 613.765625 97.617188 C 611.007812 93.480469 609.035156 87.765625 605.292969 84.417969 C 601.351562 80.871094 597.609375 77.324219 592.09375 77.128906 C 586.578125 76.929688 582.441406 80.082031 578.5 83.628906 C 574.363281 87.570312 570.421875 91.117188 565.300781 93.28125 C 563.726562 93.875 561.753906 94.269531 560.179688 93.875 C 558.800781 93.875 557.222656 92.496094 556.632812 90.917969 Z M 581.851562 115.742188 C 580.472656 115.148438 579.484375 114.164062 577.910156 113.769531 C 575.941406 113.375 574.167969 113.574219 572.789062 114.953125 C 572.195312 115.542969 571.210938 114.558594 571.800781 113.96875 C 574.5625 111.210938 580.46875 111.210938 582.636719 114.953125 C 582.835938 115.347656 582.242188 115.9375 581.851562 115.742188 Z M 581.851562 115.742188 " fill-opacity="1" fill-rule="nonzero"/><path fill="#40514e" d="M 732.558594 903.160156 C 732.558594 904.144531 732.558594 905.328125 731.964844 906.3125 C 731.179688 907.296875 729.996094 907.691406 728.8125 907.890625 C 723.890625 909.070312 718.765625 910.054688 713.644531 910.648438 C 710.492188 911.039062 707.144531 911.433594 703.992188 911.039062 C 700.050781 910.648438 696.308594 909.070312 692.761719 907.496094 C 684.882812 903.949219 677.394531 899.613281 670.304688 894.691406 C 669.714844 882.871094 664.195312 868.09375 662.816406 862.773438 C 662.816406 862.382812 662.421875 862.382812 662.226562 862.382812 C 662.421875 862.183594 662.816406 861.988281 663.015625 861.789062 C 664.589844 861.003906 665.96875 860.214844 667.546875 859.230469 C 667.941406 859.03125 667.742188 858.246094 667.152344 858.441406 C 666.167969 858.835938 665.183594 859.230469 664.195312 859.625 C 664.394531 858.835938 664.394531 857.851562 664.394531 857.0625 C 664.195312 852.53125 664.195312 847.804688 664 843.273438 C 666.363281 841.695312 668.53125 840.121094 670.894531 838.542969 C 684.292969 859.425781 714.039062 860.804688 729.011719 856.472656 C 731.179688 872.035156 732.558594 887.597656 732.558594 903.160156 Z M 668.53125 893.703125 C 668.332031 890.355469 667.742188 886.808594 666.953125 883.261719 C 665.183594 875.582031 662.621094 867.898438 661.4375 863.167969 C 661.4375 862.972656 661.4375 862.972656 661.4375 862.773438 C 661.242188 862.773438 661.042969 862.972656 660.847656 862.972656 C 660.257812 863.167969 659.664062 863.367188 658.878906 863.5625 C 646.464844 868.488281 631.886719 868.488281 618.492188 866.714844 C 610.414062 866.320312 602.535156 864.546875 595.835938 860.214844 C 587.367188 868.882812 577.320312 876.171875 567.074219 882.277344 C 553.679688 890.355469 539.296875 897.25 525.308594 904.539062 C 524.128906 905.128906 522.945312 905.722656 522.15625 906.902344 C 521.171875 908.28125 521.171875 910.054688 521.171875 911.828125 C 521.171875 914.585938 521.371094 917.9375 523.535156 919.90625 C 524.523438 920.890625 525.703125 921.285156 526.886719 921.679688 C 539.691406 926.40625 553.875 926.40625 567.46875 925.226562 C 581.0625 924.042969 594.65625 921.089844 608.25 920.300781 C 617.507812 919.710938 626.765625 919.90625 635.828125 918.921875 C 644.890625 917.9375 653.953125 915.769531 661.636719 910.84375 C 661.4375 910.648438 661.4375 910.449219 661.832031 910.253906 C 666.363281 907.496094 667.941406 902.765625 668.136719 897.054688 C 668.136719 896.070312 667.941406 895.082031 667.941406 894.097656 C 668.53125 893.703125 668.53125 893.703125 668.53125 893.703125 Z M 383.074219 252.265625 C 381.695312 249.308594 378.347656 247.929688 375.390625 249.113281 L 259.75 270.78125 C 256.597656 272.160156 255.21875 275.707031 256.597656 278.859375 L 284.769531 328.503906 L 310.972656 374.800781 L 429.371094 337.761719 L 422.277344 324.761719 Z M 591.109375 252.265625 C 593.078125 253.050781 595.246094 253.644531 597.414062 254.035156 C 603.125 255.21875 608.839844 255.808594 614.75 255.613281 C 616.324219 255.613281 616.324219 253.050781 614.75 253.25 C 609.035156 253.25 603.324219 252.855469 597.808594 251.671875 C 595.835938 251.277344 593.667969 250.6875 591.699219 249.898438 C 590.320312 249.308594 589.730469 251.671875 591.109375 252.265625 Z M 404.351562 376.375 C 381.890625 375.585938 359.628906 374.800781 337.171875 374.011719 C 334.019531 373.816406 330.671875 373.816406 327.519531 373.617188 C 325.941406 373.617188 325.941406 375.980469 327.519531 375.980469 C 349.976562 376.769531 372.238281 377.558594 394.695312 378.34375 C 397.847656 378.542969 401.199219 378.542969 404.351562 378.738281 C 405.925781 378.9375 405.925781 376.375 404.351562 376.375 Z M 465.027344 361.601562 C 457.542969 364.554688 450.054688 367.511719 442.765625 370.464844 C 441.78125 370.859375 440.597656 371.253906 439.613281 371.648438 C 438.234375 372.238281 438.824219 374.601562 440.203125 374.011719 C 447.691406 371.054688 455.175781 368.101562 462.464844 365.144531 C 463.449219 364.753906 464.632812 364.359375 465.617188 363.964844 C 467.195312 363.375 466.601562 361.007812 465.027344 361.601562 Z M 647.058594 67.871094 C 650.40625 79.691406 651.589844 91.902344 650.40625 104.117188 C 650.210938 105.695312 652.769531 105.695312 652.769531 104.117188 C 654.148438 90.328125 652.574219 76.539062 648.238281 63.535156 C 647.058594 60.1875 645.875 56.835938 644.496094 53.683594 C 643.90625 52.304688 641.738281 53.488281 642.328125 54.867188 C 644.300781 59.203125 645.679688 63.535156 647.058594 67.871094 Z M 647.058594 67.871094 " fill-opacity="1" fill-rule="nonzero"/><path fill="#11999e" d="M 379.132812 254.429688 L 422.867188 335.203125 L 312.941406 369.675781 L 260.339844 277.085938 C 260.144531 276.496094 260.339844 276.101562 260.339844 275.902344 C 260.339844 275.707031 260.539062 275.3125 260.933594 275.117188 L 376.574219 253.445312 L 376.96875 253.25 C 377.164062 253.25 377.359375 253.050781 377.558594 253.050781 C 378.148438 253.050781 378.738281 253.445312 378.9375 254.035156 Z M 387.210938 240.640625 C 391.546875 236.503906 396.46875 230.59375 398.242188 224.878906 C 398.636719 223.5 398.636719 222.121094 398.835938 220.742188 C 399.621094 214.046875 399.226562 215.816406 403.5625 213.453125 C 406.320312 211.878906 407.109375 210.894531 408.488281 208.136719 C 410.65625 204.195312 410.457031 201.4375 414.003906 198.285156 C 415.578125 196.90625 416.171875 196.511719 417.15625 194.738281 C 418.335938 192.964844 415.578125 191.390625 414.398438 193.164062 C 411.835938 197.101562 408.09375 198.480469 405.925781 202.816406 C 404.351562 205.769531 404.746094 208.527344 401.199219 210.5 C 399.820312 211.289062 398.636719 211.089844 397.457031 212.074219 C 394.695312 214.046875 395.089844 215.425781 394.695312 218.773438 C 393.910156 227.441406 388.589844 231.972656 385.636719 239.65625 C 385.242188 240.640625 386.621094 241.230469 387.210938 240.640625 Z M 405.53125 266.054688 C 411.640625 263.492188 419.324219 260.144531 424.445312 255.613281 C 426.21875 254.035156 427.203125 252.066406 428.1875 250.097656 C 429.171875 248.125 429.566406 245.367188 430.945312 243.597656 C 433.113281 240.835938 437.25 240.835938 440.007812 239.851562 C 445.128906 237.882812 445.523438 233.351562 450.25 230.59375 C 453.996094 228.425781 457.933594 229.015625 459.511719 224.289062 C 459.90625 223.109375 458.328125 222.515625 457.542969 223.109375 C 453.601562 226.0625 446.902344 226.652344 443.949219 230.789062 C 443.355469 231.578125 443.355469 232.761719 442.765625 233.546875 C 440.007812 237.488281 439.417969 235.714844 434.6875 236.699219 C 430.550781 237.6875 428.976562 240.835938 427.003906 244.382812 C 424.445312 249.503906 423.066406 252.65625 417.945312 255.613281 C 413.414062 258.371094 408.882812 260.539062 404.746094 263.691406 C 403.757812 264.675781 404.152344 266.644531 405.53125 266.054688 Z M 260.539062 254.234375 C 259.160156 251.476562 257.1875 248.71875 254.429688 247.140625 C 253.445312 246.550781 252.265625 246.355469 251.082031 245.960938 C 250.292969 245.960938 249.703125 245.761719 248.914062 245.761719 C 245.960938 244.582031 244.777344 242.808594 245.367188 240.246094 C 244.582031 237.09375 245.171875 234.335938 242.808594 231.777344 C 239.851562 228.230469 228.03125 225.472656 230.789062 218.773438 C 231.183594 217.589844 229.214844 216.804688 228.820312 217.984375 C 227.441406 220.546875 227.046875 223.109375 228.820312 225.667969 C 232.761719 231.777344 240.640625 230.003906 242.019531 239.457031 C 242.414062 242.414062 240.839844 245.566406 243.792969 247.929688 C 244.582031 248.71875 245.761719 248.71875 246.945312 249.113281 C 251.871094 250.6875 255.023438 251.476562 257.976562 255.808594 C 258.960938 257.1875 261.328125 255.808594 260.539062 254.234375 Z M 214.046875 273.539062 C 215.226562 274.917969 215.425781 276.691406 216.804688 278.070312 C 218.378906 279.84375 219.957031 280.828125 222.320312 281.027344 C 223.699219 281.222656 224.878906 280.433594 226.261719 280.433594 C 230.003906 280.042969 232.957031 280.828125 236.308594 281.222656 C 240.839844 281.8125 243.597656 281.222656 247.734375 279.449219 C 249.507812 278.664062 248.324219 275.707031 246.355469 276.296875 C 240.640625 277.675781 234.535156 276.296875 228.820312 275.902344 C 225.472656 277.285156 221.925781 276.691406 218.578125 274.132812 C 218.183594 273.34375 217.789062 272.753906 217.199219 271.964844 C 215.425781 270.386719 215.621094 269.796875 214.046875 268.613281 C 208.53125 264.675781 199.46875 264.675781 194.9375 269.796875 C 194.34375 270.386719 195.132812 271.175781 195.722656 270.585938 C 201.042969 266.054688 209.910156 268.8125 214.046875 273.539062 Z M 248.71875 302.105469 C 244.1875 303.484375 240.246094 305.847656 235.320312 306.242188 C 233.550781 306.441406 231.578125 305.652344 229.804688 306.046875 C 225.078125 307.03125 225.078125 310.578125 221.136719 311.957031 C 214.242188 314.515625 204.984375 304.863281 200.058594 315.699219 C 199.664062 316.683594 200.847656 317.667969 201.632812 316.878906 C 210.894531 308.410156 217.589844 322.199219 225.472656 316.488281 C 230.199219 313.136719 218.578125 313.925781 232.761719 309.984375 C 234.335938 309.589844 236.898438 310.183594 238.671875 309.789062 C 243.003906 309 246.75 307.03125 249.898438 304.273438 C 251.082031 303.289062 250.097656 301.710938 248.71875 302.105469 Z M 466.210938 272.949219 C 463.058594 273.34375 459.707031 274.132812 456.554688 274.328125 C 456.554688 274.328125 448.871094 273.144531 447.296875 273.738281 C 444.933594 274.523438 444.34375 275.707031 442.765625 277.480469 C 440.007812 280.828125 437.644531 282.800781 432.71875 283.980469 C 430.945312 284.375 429.371094 284.375 427.792969 284.964844 C 424.640625 286.148438 422.671875 287.921875 421.09375 290.875 C 420.308594 292.058594 421.882812 293.242188 423.066406 292.253906 C 428.1875 288.117188 431.144531 288.511719 437.25 287.332031 C 440.007812 286.738281 441.976562 286.148438 443.75 283.785156 C 446.3125 280.632812 447.296875 278.070312 451.828125 276.890625 C 456.554688 275.707031 461.679688 276.496094 466.601562 275.3125 C 467.785156 274.917969 467.589844 272.753906 466.210938 272.949219 Z M 466.210938 272.949219 " fill-opacity="1" fill-rule="nonzero"/></svg>